<svg xmlns="http://www.w3.org/2000/svg" xmlns:xlink="http://www.w3.org/1999/xlink" width="256" height="256" viewBox="0 0 256 256"><defs><clipPath id="b"><rect width="256" height="256"/></clipPath></defs><g id="a" clip-path="url(#b)"><rect width="256" height="256" rx="14" fill="#030259"/><g transform="translate(-58.512 -37.152)" opacity="0.2"><path d="M247.566,87.871l-3.3-.881L186.711,243.346,129.157,86.99l-3.3.881,59.02,160.347,1.831-.679,1.836.679Z" transform="translate(-0.685 -1.949)" fill="#fff"/><g transform="translate(124.512 83.152)"><path d="M247.994,86.3a2.663,2.663,0,0,0-1.28-2.83,2.693,2.693,0,0,0-3.071.546l-35.231,28.646a5.843,5.843,0,0,1-2.953.851H167.074a5.656,5.656,0,0,1-2.953-.851l-35.236-28.73a2.623,2.623,0,0,0-3.066-.492,2.671,2.671,0,0,0-1.284,2.854l5.138,56.82a13.327,13.327,0,0,1-.349,3.843l-4.345,15.654a9.916,9.916,0,0,0,.212,5.354l9.842,26.85a14.552,14.552,0,0,0,2.736,4.37l45.472,46.943a3.937,3.937,0,0,0,2.815,1.26h0a3.937,3.937,0,0,0,2.81-1.25L234.7,199.158a14.178,14.178,0,0,0,2.746-4.365l9.842-26.909a9.9,9.9,0,0,0,.212-5.349l-4.345-15.566a13.184,13.184,0,0,1-.29-3.853Zm-41.146,31,29.434,26.235H187.743V117.457H205.46a6.707,6.707,0,0,0,1.383-.167Zm-22.544.167v26.082H135.874l29.527-26.3a7.1,7.1,0,0,0,1.693.241Zm-56.19-29.7,33.833,27.785.094.069-29.035,25.905Zm12.131,109.009a11.264,11.264,0,0,1-1.968-3.164l-9.842-26.84a6.609,6.609,0,0,1-.128-3.277l4.35-15.649c.079-.281.133-.6.2-.93H184.3v95.5Zm103.995-33.346a6.594,6.594,0,0,1-.128,3.278l-9.842,26.909a11.112,11.112,0,0,1-1.968,3.164L187.743,242.42v-95.5h51.943c.064.34.128.669.207.955Zm-4.714-21.584-29.242-26.082c.1-.074.212-.148.305-.221l33.833-27.706Z" transform="translate(-124.512 -83.152)" fill="#fff"/></g></g><text transform="translate(128 186.5)" fill="#fc4f64" font-size="160" font-family="CircularStd-Bold, Circular Std" font-weight="700"><tspan x="-97.12" y="0">SB</tspan></text></g></svg>